#!OML:ASF E:\emotionWalksFemale\Project 1\Capture day 1\Session 1\Female1.ASF
:FULLY-SPECIFIED
:DEGREES
2026
root 9.65979 15.8177 -1.35796 352.879 -1.85081 -359.03
lowerback 3.9548 0.709905 5.9509
upperback -7.26881 1.75417 3.1525
thorax -9.90119 0.547078 -0.178034
lowerneck -16.7785 -2.65929 -4.30648
upperneck 29.4245 -4.83847 6.95311
head 12.8949 -1.70216 2.6589
rclavicle -1.23246e-014 9.54166e-015
rhumerus 28.828 23.7366 -49.0301
rradius 28.474
rwrist 15.9204
rhand -1.32803 -46.515
rfingers 7.12502
rthumb 24.3178 -74.9924
lclavicle -1.23246e-014 9.54166e-015
lhumerus 26.1345 -21.8775 49.6503
lradius 31.1136
lwrist -22.4153
lhand 0.408819 -39.4915
lfingers 7.12502
lthumb 25.9819 -11.2476
rfemur 23.8923 9.42089 31.9474
rtibia 6.00769
rfoot -9.45536 -29.9048
rtoes 5.4904
lfemur -24.069 -22.9154 -15.2457
ltibia 26.3866
lfoot -30.8663 27.8753
ltoes -8.5362
2027
root 9.66808 15.8099 -1.26201 352.979 -2.17536 -359.127
lowerback 3.9015 0.703514 5.97134
upperback -7.21546 1.74032 3.17631
thorax -9.81063 0.542384 -0.162236
lowerneck -16.8537 -2.63545 -4.477
upperneck 29.1533 -4.77962 7.11302
head 12.8042 -1.6765 2.75309
rclavicle 1.82882e-014 -6.36111e-015
rhumerus 28.9867 23.0464 -49.7994
rradius 28.1019
rwrist 16.7743
rhand -1.26608 -46.4419
rfingers 7.12502
rthumb 24.3772 -74.9114
lclavicle 1.82882e-014 -6.36111e-015
lhumerus 26.1277 -21.9944 49.4184
lradius 31.2888
lwrist -22.0795
lhand 0.354618 -39.2825
lfingers 7.12502
lthumb 25.93 -11.031
rfemur 24.2077 9.31866 31.8941
rtibia 5.82389
rfoot -8.11877 -29.4965
rtoes 5.20142
lfemur -24.3005 -23.8201 -14.8398
ltibia 26.1031
lfoot -31.3397 28.1309
ltoes -7.96695
2028
root 9.67727 15.8023 -1.16285 353.099 -2.50417 -359.279
lowerback 3.7652 0.742575 6.058
upperback -7.20315 1.78479 3.15866
thorax -9.71102 0.55897 -0.232885
lowerneck -16.8164 -2.65789 -4.25374
upperneck 29.0768 -4.83422 6.97062
head 12.7589 -1.69681 2.64765
rclavicle -1.51076e-014 -2.8625e-014
rhumerus 29.6458 25.9017 -46.6487
rradius 29.6954
rwrist 12.7947
rhand -1.31546 -47.5862
rfingers 7.12502
rthumb 24.3298 -76.062
lclavicle -1.51076e-014 -2.8625e-014
lhumerus 26.1559 -22.4658 48.9675
lradius 31.7127
lwrist -21.4596
lhand 0.66813 -39.0971
lfingers 7.12502
lthumb 26.2302 -10.8899
rfemur 24.5434 9.21773 31.8928
rtibia 5.58907
rfoot -7.01966 -28.9969
rtoes 5.20132
lfemur -24.5633 -24.797 -14.3432
ltibia 25.9222
lfoot -32.3305 27.9234
ltoes -6.35245
2029
root 9.6883 15.7944 -1.06184 353.182 -2.80986 -359.443
lowerback 3.72058 0.786074 6.19473
upperback -7.24187 1.84873 3.11171
thorax -9.72051 0.576748 -0.365208
lowerneck -16.9536 -2.69379 -4.3426
upperneck 29.2579 -4.92798 7.14902
head 12.8776 -1.72035 2.72177
rclavicle 5.56597e-015 1.90833e-014
rhumerus 29.3326 25.5221 -47.2479
rradius 29.5691
rwrist 13.4487
rhand -1.15742 -47.077
rfingers 7.12502
rthumb 24.4813 -75.5324
lclavicle 5.56597e-015 1.90833e-014
lhumerus 26.0397 -21.3934 50.2702
lradius 30.9943
lwrist -23.0963
lhand 0.479189 -39.5552
lfingers 7.12502
lthumb 26.0493 -11.3212
rfemur 24.8115 9.0932 31.8864
rtibia 5.52995
rfoot -6.35661 -28.5338
rtoes 4.28898
lfemur -24.7967 -25.8427 -13.8466
ltibia 25.7833
lfoot -32.9418 28.3641
ltoes -5.45904
2030
root 9.69859 15.7822 -0.964839 353.203 -3.08631 -359.644
lowerback 3.74887 0.777349 6.31076
upperback -7.20161 1.84802 3.13294
thorax -9.69162 0.569755 -0.407496
lowerneck -17.1105 -2.69338 -4.4423
upperneck 29.2601 -4.92356 7.2463
head 12.9174 -1.71415 2.77736
rclavicle -7.55382e-015 -1.27222e-014
rhumerus 28.7028 22.8412 -50.3015
rradius 28.1461
rwrist 17.1083
rhand -1.25429 -45.5457
rfingers 7.12502
rthumb 24.3885 -74.0136
lclavicle -7.55382e-015 -1.27222e-014
lhumerus 25.9447 -21.2333 50.4902
lradius 30.9161
lwrist -23.2081
lhand 0.245362 -39.4398
lfingers 7.12502
lthumb 25.8254 -11.173
rfemur 25.0031 8.92081 31.9272
rtibia 5.70439
rfoot -6.03394 -28.1262
rtoes 3.47489
lfemur -24.8607 -26.3325 -13.4963
ltibia 25.6364
lfoot -33.1243 28.7723
ltoes -5.38419
2031
root 9.70756 15.7676 -0.865898 353.262 -3.41722 -359.808
lowerback 3.76076 0.764508 6.33766
upperback -7.17416 1.83555 3.1798
thorax -9.6702 0.564444 -0.371319
lowerneck -16.9571 -2.63974 -4.45365
upperneck 29.0256 -4.82723 7.24159
head 12.781 -1.68008 2.78711
rclavicle 5.56597e-015 -1.11319e-014
rhumerus 29.1279 25.0319 -48.0288
rradius 29.3714
rwrist 14.0449
rhand -1.66987 -46.6427
rfingers 7.12502
rthumb 23.99 -75.1637
lclavicle 5.56597e-015 -1.11319e-014
lhumerus 25.8005 -21.9212 49.7383
lradius 31.3454
lwrist -22.1279
lhand 0.167669 -39.2801
lfingers 7.12502
lthumb 25.751 -11.0026
rfemur 25.0628 8.81074 31.9418
rtibia 6.15302
rfoot -6.15139 -27.6604
rtoes 4.64821
lfemur -24.9011 -26.7079 -13.1853
ltibia 25.4617
lfoot -33.937 28.7444
ltoes -2.18283
2032
root 9.71621 15.7522 -0.761606 353.379 -3.80358 -359.855
lowerback 3.72477 0.797279 6.2756
upperback -7.18474 1.86883 3.157
thorax -9.65862 0.584002 -0.364536
lowerneck -16.9246 -2.59268 -4.48812
upperneck 28.9474 -4.77158 7.32976
head 12.7414 -1.64983 2.83443
rclavicle -3.57812e-015 -1.90833e-014
rhumerus 28.6828 23.1676 -50.2502
rradius 28.2698
rwrist 16.7156
rhand -2.01264 -45.9703
rfingers 7.12502
rthumb 23.6613 -74.5342
lclavicle -3.57812e-015 -1.90833e-014
lhumerus 25.7111 -22.6017 49.0146
lradius 31.6715
lwrist -21.2181
lhand 0.106934 -39.2152
lfingers 7.12502
lthumb 25.6928 -10.9292
rfemur 24.9827 8.7846 31.8307
rtibia 6.83739
rfoot -6.05168 -27.1427
rtoes 5.21579
lfemur -24.9925 -27.5726 -12.841
ltibia 25.2378
lfoot -35.482 28.854
ltoes 3.55904
2033
root 9.72546 15.7355 -0.658803 353.463 -4.14424 -359.95
lowerback 3.72884 0.829143 6.29429
upperback -7.18207 1.909 3.11276
thorax -9.65378 0.600001 -0.426821
lowerneck -17.0595 -2.61583 -4.62916
upperneck 29.0206 -4.81681 7.49503
head 12.8124 -1.66095 2.91794
rclavicle 1.63003e-014 1.11319e-014
rhumerus 28.661 23.8235 -49.6284
rradius 28.6287
rwrist 15.8398
rhand -1.89757 -46.1954
rfingers 7.12502
rthumb 23.7716 -74.7449
lclavicle 1.63003e-014 1.11319e-014
lhumerus 25.6726 -22.9211 48.7154
lradius 31.8148
lwrist -20.9044
lhand 0.0131626 -38.9837
lfingers 7.12502
lthumb 25.603 -10.6847
rfemur 24.8976 8.70035 31.7669
rtibia 7.54581
rfoot -5.7722 -26.6473
rtoes 3.84943
lfemur -24.9451 -28.2159 -12.5687
ltibia 24.9177
lfoot -36.2409 29.3517
ltoes 4.95171
2034
root 9.73242 15.7129 -0.559415 353.49 -4.39119 -360.177
lowerback 3.87556 0.819378 6.33746
upperback -7.20123 1.91501 3.1211
thorax -9.76258 0.596804 -0.44444
lowerneck -17.118 -2.67051 -4.79256
upperneck 29.1106 -4.89752 7.63533
head 12.8772 -1.69521 2.99072
rclavicle 2.38542e-015 0
rhumerus 28.6216 23.9326 -49.6327
rradius 28.6446
rwrist 15.7274
rhand -1.66029 -46.2825
rfingers 7.12502
rthumb 23.9992 -74.8023
lclavicle 2.38542e-015 0
lhumerus 25.5426 -22.9973 48.714
lradius 31.8659
lwrist -21.0147
lhand -0.0691051 -38.8596
lfingers 7.12502
lthumb 25.5242 -10.5493
rfemur 24.9164 8.48396 31.8615
rtibia 8.13491
rfoot -5.78708 -26.2189
rtoes 2.71395
lfemur -24.833 -28.239 -12.3728
ltibia 24.6086
lfoot -35.7629 30.2313
ltoes 2.01996
2035
root 9.73619 15.6908 -0.458498 353.593 -4.64968 -360.539
lowerback 3.96824 0.819407 6.43058
upperback -7.22779 1.93757 3.17028
thorax -9.84744 0.600265 -0.447164
lowerneck -17.134 -2.66435 -4.73083
upperneck 29.1234 -4.8921 7.58196
head 12.8821 -1.69311 2.96001
rclavicle 5.56597e-015 3.02153e-014
rhumerus 28.485 23.6859 -50.0302
rradius 28.5253
rwrist 16.1092
rhand -1.69596 -46.028
rfingers 7.12502
rthumb 23.965 -74.5523
lclavicle 5.56597e-015 3.02153e-014
lhumerus 25.379 -22.8704 48.7929
lradius 31.8647
lwrist -21.2216
lhand 0.0398921 -39.136
lfingers 7.12502
lthumb 25.6286 -10.8407
rfemur 25.0009 8.26355 32.1179
rtibia 8.44703
rfoot -5.64961 -25.8292
rtoes 1.71827
lfemur -24.8449 -28.0176 -12.0121
ltibia 24.3786
lfoot -34.8274 31.3271
ltoes -0.307955
2036
root 9.74317 15.668 -0.352274 353.798 -4.96543 -360.849
lowerback 3.82265 0.868443 6.55439
upperback -7.22247 1.99871 3.1667
thorax -9.74847 0.62303 -0.524604
lowerneck -17.12 -2.61864 -4.61583
upperneck 29.0512 -4.83074 7.50387
head 12.8389 -1.66484 2.91709
rclavicle 7.95139e-015 -1.59028e-015
rhumerus 28.3885 23.5869 -50.197
rradius 28.4855
rwrist 16.1589
rhand -1.81862 -45.6219
rfingers 7.12502
rthumb 23.8473 -74.1615
lclavicle 7.95139e-015 -1.59028e-015
lhumerus 25.3525 -22.8169 48.7585
lradius 31.9017
lwrist -21.1097
lhand 0.0796443 -39.334
lfingers 7.12502
lthumb 25.6667 -11.0443
rfemur 25.1034 8.13768 32.2906
rtibia 8.5709
rfoot -5.22718 -25.4571
rtoes -0.173195
lfemur -24.9762 -28.2568 -11.5409
ltibia 24.1993
lfoot -35.1098 31.4943
ltoes -1.2401
2037
root 9.75267 15.6486 -0.244377 353.969 -5.21075 -361.001
lowerback 3.62068 0.897394 6.55807
upperback -7.20308 2.01379 3.13772
thorax -9.60341 0.632839 -0.556262
lowerneck -17.0768 -2.63004 -4.71088
upperneck 29.0581 -4.81422 7.48757
head 12.833 -1.67196 2.93012
rclavicle 7.15625e-015 1.74931e-014
rhumerus 28.3588 23.6411 -50.1555
rradius 28.5075
rwrist 16.0826
rhand -1.91964 -45.5419
rfingers 7.12502
rthumb 23.7505 -74.0942
lclavicle 7.15625e-015 1.74931e-014
lhumerus 25.3852 -22.8558 48.6996
lradius 31.9587
lwrist -20.9693
lhand 0.0294079 -39.1081
lfingers 7.12502
lthumb 25.6185 -10.8114
rfemur 25.3449 7.96969 32.2672
rtibia 8.54629
rfoot -4.85361 -24.9699
rtoes -1.85674
lfemur -25.0061 -28.6896 -11.3082
ltibia 24.0497
lfoot -35.289 32.2459
ltoes -1.45759
2038
root 9.76153 15.6291 -0.136293 354.111 -5.32235 -361.112
lowerback 3.49144 0.85653 6.45192
upperback -7.19479 1.93673 3.13785
thorax -9.52278 0.605395 -0.486651
lowerneck -17.0932 -2.65882 -4.86561
upperneck 29.1075 -4.79228 7.42949
head 12.8571 -1.68747 2.93906
rclavicle 8.34896e-015 2.62396e-014
rhumerus 28.415 23.8045 -49.9894
rradius 28.5647
rwrist 16.1042
rhand -1.88028 -45.795
rfingers 7.12502
rthumb 23.7882 -74.3424
lclavicle 8.34896e-015 2.62396e-014
lhumerus 25.228 -22.5829 48.8577
lradius 31.97
lwrist -21.2572
lhand -0.0405524 -38.9307
lfingers 7.12502
lthumb 25.5515 -10.6243
rfemur 25.6769 7.67037 32.1917
rtibia 8.42706
rfoot -4.68531 -24.4166
rtoes -2.421
lfemur -24.9664 -28.6785 -11.314
ltibia 23.9885
lfoot -35.3017 32.4147
ltoes -1.52764
2039
root 9.76995 15.6055 -0.0243935 354.223 -5.47097 -361.297
lowerback 3.50612 0.825409 6.39895
upperback -7.20907 1.88972 3.10204
thorax -9.54942 0.583802 -0.490248
lowerneck -17.2545 -2.64133 -4.76681
upperneck 29.2324 -4.75993 7.2994
head 12.9336 -1.6754 2.87895
rclavicle -7.55382e-015 -3.33958e-014
rhumerus 28.3545 23.5051 -50.3723
rradius 28.3979
rwrist 16.7627
rhand -1.65541 -45.7627
rfingers 7.12502
rthumb 24.0039 -74.2818
lclavicle -7.55382e-015 -3.33958e-014
lhumerus 25.099 -22.2751 48.9938
lradius 31.8512
lwrist -21.4367
lhand -0.0777867 -38.9348
lfingers 7.12502
lthumb 25.5159 -10.6234
rfemur 26.1412 7.38976 32.2065
rtibia 8.08561
rfoot -4.35767 -23.9886
rtoes -2.82201
lfemur -24.935 -28.6932 -11.2148
ltibia 24.0167
lfoot -35.822 32.1829
ltoes -0.514313
2040
root 9.77824 15.5868 0.0915762 354.295 -5.73401 -361.409
lowerback 3.56298 0.844428 6.33337
upperback -7.24481 1.90957 3.01066
thorax -9.61949 0.591641 -0.554151
lowerneck -17.4188 -2.59608 -4.53179
upperneck 29.4526 -4.70597 7.07207
head 13.0423 -1.65035 2.76284
rclavicle -9.14409e-015 -1.98785e-014
rhumerus 28.112 22.6535 -51.4356
rradius 27.9733
rwrist 18.1854
rhand -1.61715 -45.3501
rfingers 7.12502
rthumb 24.0406 -73.8644
lclavicle -9.14409e-015 -1.98785e-014
lhumerus 25.0498 -22.3237 48.7945
lradius 31.8426
lwrist -21.1794
lhand -0.0410043 -38.8976
lfingers 7.12502
lthumb 25.5511 -10.5912
rfemur 26.7217 7.22996 32.1463
rtibia 7.59942
rfoot -3.99205 -23.6157
rtoes -2.43305
lfemur -24.8304 -29.0922 -11.0905
ltibia 24.1064
lfoot -36.861 31.94
ltoes 2.03767
